<?xml version="1.0"?>
<svg width="640" height="480" xmlns="http://www.w3.org/2000/svg" xmlns:svg="http://www.w3.org/2000/svg">
 <!-- Created with SVG-edit - http://svg-edit.googlecode.com/ -->
 <title>Star</title>

 <g>
  <title>Layer 1</title>
  <path stroke="#000000" id="svg_5" d="m330,65.660202l44.512878,133.171875l135.545563,2.872528l-108.035065,85.177292l39.25885,134.947205l-111.282227,-80.529419l-111.282211,80.529419l39.258835,-134.947205l-108.035034,-85.177292l135.545563,-2.872528l44.512848,-133.171875l44.512878,133.171875" stroke-linecap="null" stroke-linejoin="null" stroke-dasharray="null" stroke-width="5" fill="#04ff00"/>
  <polygon stroke="#000000" stroke-width="5" points="330.9999957240907,97.17353057861328 367.43295900500016,208.77411576138365 478.37445068359375,211.18136430268532 389.94978983265173,282.56149761376764 422.08240392636435,395.64985813122075 330.9999957240907,328.16464678242664 239.91761783371658,395.64985813122075 272.0502319274292,282.56149761376764 183.62557107648718,211.18136430268532 294.56706275508077,208.77411576138365 330.9999957240907,97.17353057861328 367.43295900500016,208.77411576138365 " strokeWidth="5" strokecolor="#000000" fill="#04ff00" orient="point" r2="52.730594" r="131.826485" point="5" shape="star" id="svg_6" cy="173" cx="266"/>
  <polygon stroke="#000000" id="svg_7" stroke-width="5" points="331.83331298828125,147.09515380859375 356.7708435058594,226.16637882857322 432.707763671875,227.87195338390848 372.18310546875,278.44619253327255 394.1771240234375,358.57150366179485 331.83331298828125,310.7568931440328 269.489501953125,358.57150366179485 291.4835510253906,278.44619253327255 230.95887756347656,227.87195338390848 306.8957824707031,226.16637882857322 331.83331298828125,147.09515380859375 356.7708435058594,226.16637882857322 " strokeWidth="5" strokecolor="#000000" fill="#04ff00" orient="point" r2="52.730594" r="131.826485" point="5" shape="star" cy="173" cx="266"/>
 </g>
</svg>